<svg width="17" height="19" viewBox="0 0 17 19" fill="none" xmlns="http://www.w3.org/2000/svg">
<g clip-path="url(#clip0_117_3487)">
<path d="M4.9801 14.1195L5.23714 13.8572C5.40749 13.6833 5.40749 13.4013 5.23714 13.2274L2.18619 10.1308H15.8504C16.0914 10.1308 16.2867 9.93145 16.2867 9.68552V9.31443C16.2867 9.06851 16.0914 8.86912 15.8504 8.86912H2.18619L5.23714 5.77257C5.40749 5.59867 5.40749 5.31672 5.23714 5.14278L4.9801 4.88042C4.80975 4.70653 4.53355 4.70653 4.3632 4.88042L0.128736 9.1851C-0.0416098 9.359 -0.0416098 9.64095 0.128736 9.81489L4.3632 14.1196C4.53355 14.2935 4.80975 14.2935 4.9801 14.1195Z" fill="#D74C20"/>
</g>
<defs>
<clipPath id="clip0_117_3487">
<rect width="16.2857" height="19" fill="white"/>
</clipPath>
</defs>
</svg>
